<svg width="201" height="200" viewBox="0 0 201 200" fill="none" xmlns="http://www.w3.org/2000/svg">
  <path fill-rule="evenodd" clip-rule="evenodd"
    d="M95.8737 11.039C68.4459 12.7387 43.5871 27.0514 27.6133 50.3071C19.8871 61.5486 14.6913 74.5092 12.5087 87.9141C11.3111 95.4084 11.369 92.8781 11.3111 134.928C11.2338 177.17 11.1759 174.949 12.4121 178.329C15.6377 187.195 26.0294 191.831 34.8179 188.335C36.7494 187.562 39.0673 185.978 40.6318 184.356C41.3465 183.641 55.0604 167.88 71.1307 149.337C87.2011 130.794 100.413 115.632 100.49 115.632C100.567 115.632 113.953 130.929 130.216 149.627C146.499 168.324 160.368 184.162 161.044 184.8C167.302 190.903 176.766 191.29 183.681 185.746C186.424 183.544 188.587 180.222 189.592 176.668L190.017 175.123L190.075 137.265C190.113 111.344 190.075 98.3057 189.92 95.9299C189.186 83.7033 186.289 72.539 181.054 61.7418C176.284 51.8716 170.701 44.1455 162.763 36.3421C152.815 26.5878 141.091 19.4605 128.014 15.2304C121.776 13.2023 115.035 11.8309 108.409 11.2514C105.164 10.9617 98.8483 10.8458 95.8737 11.039ZM125.755 23.4201C118.762 21.1409 112.987 20.0399 105.609 19.5377C90.6586 18.5526 75.3994 22.1067 61.956 29.7362C59.5802 31.069 54.6354 34.3719 52.4914 36.0524C44.3404 42.4264 37.0971 50.5775 31.8626 59.3273C24.9671 70.8586 21.0074 83.4329 19.9451 97.0695C19.6747 100.488 19.694 173.075 19.9644 174.234C21.1812 179.565 27.3622 182.579 32.1717 180.183C33.1181 179.72 33.9487 179.082 34.7406 178.271C35.3973 177.595 48.7249 162.278 64.3897 144.218C80.0351 126.158 93.2854 110.861 93.8649 110.204L94.8886 109.026L86.1388 99.0011C81.3486 93.4769 77.1764 88.648 76.906 88.3004C74.82 85.4996 73.7576 81.5014 74.2212 78.0826C74.7234 74.374 75.9209 71.9209 78.5671 69.2747C80.4214 67.4012 81.8701 66.5126 84.2652 65.7014C86.1388 65.0833 91.0642 64.9095 103.928 64.9674C116.039 65.0447 115.73 65.0254 118.55 66.3581C123.611 68.7532 126.778 73.8525 126.798 79.6085C126.817 82.0422 126.431 83.7226 125.407 85.8859C124.48 87.7982 124.576 87.6823 114.397 99.4067L106.072 109.026L106.536 109.528C106.787 109.798 120.23 125.231 136.417 143.832C152.603 162.413 166.24 178.059 166.722 178.561C167.804 179.701 169.852 180.744 171.551 181.033C175.936 181.806 180.494 178.638 181.421 174.196C181.557 173.462 181.615 161.873 181.557 133.865C181.499 98.4023 181.46 94.3268 181.17 92.0669C179.335 77.9087 175.009 66.2036 167.495 55.078C157.451 40.1858 142.617 28.9443 125.755 23.4201ZM117.816 82.1194C119.303 79.0676 117.661 75.0114 114.474 73.8332C113.451 73.4469 113.103 73.4276 100.818 73.4469C93.8842 73.4662 87.8578 73.5434 87.4136 73.6207C83.6471 74.374 81.4645 78.8938 83.2028 82.3512C83.7243 83.3943 100.239 102.459 100.529 102.362C100.625 102.323 104.45 97.9967 109.008 92.7429C114.725 86.1564 117.468 82.8534 117.816 82.1194Z"
    fill="#26BEA5" />
</svg>