<svg width="48" height="48" viewBox="0 0 48 48" fill="none" xmlns="http://www.w3.org/2000/svg">
<path d="M24 45.5C12.14 45.5 2.5 35.86 2.5 24C2.5 12.14 12.14 2.5 24 2.5C35.86 2.5 45.5 12.14 45.5 24C45.5 35.86 35.86 45.5 24 45.5ZM24 5.5C13.8 5.5 5.5 13.8 5.5 24C5.5 34.2 13.8 42.5 24 42.5C34.2 42.5 42.5 34.2 42.5 24C42.5 13.8 34.2 5.5 24 5.5Z" fill="#002E79"/>
<path d="M26.5198 32.56C26.1398 32.56 25.7598 32.42 25.4598 32.12L18.3998 25.06C17.8198 24.48 17.8198 23.52 18.3998 22.94L25.4598 15.88C26.0398 15.3 26.9998 15.3 27.5798 15.88C28.1598 16.46 28.1598 17.42 27.5798 18L21.5798 24L27.5798 30C28.1598 30.58 28.1598 31.54 27.5798 32.12C27.2998 32.42 26.9198 32.56 26.5198 32.56Z" fill="#002E79"/>
</svg>
