<svg width="48" height="48" viewBox="0 0 48 48" fill="none" xmlns="http://www.w3.org/2000/svg">
<path d="M24 45.5C12.14 45.5 2.5 35.86 2.5 24C2.5 12.14 12.14 2.5 24 2.5C35.86 2.5 45.5 12.14 45.5 24C45.5 35.86 35.86 45.5 24 45.5ZM24 5.5C13.8 5.5 5.5 13.8 5.5 24C5.5 34.2 13.8 42.5 24 42.5C34.2 42.5 42.5 34.2 42.5 24C42.5 13.8 34.2 5.5 24 5.5Z" fill="#002E79"/>
<path d="M21.4799 32.56C21.0999 32.56 20.7199 32.42 20.4199 32.12C19.8399 31.54 19.8399 30.58 20.4199 30L26.4199 24L20.4199 18C19.8399 17.42 19.8399 16.46 20.4199 15.88C20.9999 15.3 21.9599 15.3 22.5399 15.88L29.5999 22.94C30.1799 23.52 30.1799 24.48 29.5999 25.06L22.5399 32.12C22.2399 32.42 21.8599 32.56 21.4799 32.56Z" fill="#002E79"/>
</svg>
