<svg width="16" height="16" viewBox="0 0 16 16" fill="none" xmlns="http://www.w3.org/2000/svg">
<path d="M7.99992 1.33334C4.32659 1.33334 1.33325 4.32668 1.33325 8.00001C1.33325 11.6733 4.32659 14.6667 7.99992 14.6667C11.6733 14.6667 14.6666 11.6733 14.6666 8.00001C14.6666 4.32668 11.6733 1.33334 7.99992 1.33334ZM11.1866 6.46668L7.40659 10.2467C7.31325 10.34 7.18659 10.3933 7.05325 10.3933C6.91992 10.3933 6.79325 10.34 6.69992 10.2467L4.81325 8.36001C4.61992 8.16668 4.61992 7.84668 4.81325 7.65334C5.00659 7.46001 5.32659 7.46001 5.51992 7.65334L7.05325 9.18668L10.4799 5.76001C10.6733 5.56668 10.9933 5.56668 11.1866 5.76001C11.3799 5.95334 11.3799 6.26668 11.1866 6.46668Z" fill="#69E1CD"/>
</svg>
