<svg width="146" height="200" viewBox="0 0 146 200" fill="none" xmlns="http://www.w3.org/2000/svg">
  <path
    d="M142.338 89.9085C142.268 91.2358 141.962 92.4933 141.464 93.6509L141.164 94.2933L140.391 95.9479L139.694 97.4418L127.567 123.411L127.494 123.566L127.482 123.596C127.329 123.96 127.237 124.354 127.216 124.769C127.213 124.833 127.213 124.896 127.213 124.96V139.66H127.21C127.21 139.812 127.207 139.963 127.197 140.115C127.173 140.56 127.115 140.996 127.023 141.421C126.446 144.13 124.563 146.339 122.081 147.424C120.874 147.951 119.523 148.215 118.114 148.139C116.98 148.078 115.911 147.805 114.942 147.363C112.778 146.375 111.109 144.533 110.361 142.299C110.119 141.578 109.975 140.815 109.942 140.024V124.302C109.942 123.796 109.954 123.29 109.982 122.778C110.034 121.824 110.131 120.884 110.275 119.957C110.66 117.475 111.369 115.102 112.359 112.884L112.757 112.042L118.909 98.8721L118.906 98.8691C119.074 98.5206 119.178 98.1327 119.199 97.7206C119.285 96.1267 118.12 94.7479 116.546 94.5115L116.391 94.4903H116.387L115.425 94.3691L55.8954 86.8358L43.6949 85.2933L43.5543 85.2752C37.9675 84.5418 33.6674 80.0994 33.1234 74.66C32.9614 72.957 32.8789 71.2297 32.8789 69.4873C32.8789 39.1388 57.6925 14.5388 88.3007 14.5388C113.845 14.5388 135.351 31.6721 141.769 54.9812C141.904 55.4661 142.029 55.954 142.152 56.4449C142.237 56.9327 142.28 57.4358 142.28 57.9509C142.28 62.8721 138.258 66.86 133.295 66.86C129.129 66.86 125.623 64.0479 124.606 60.2327C124.581 60.1297 124.554 60.0267 124.529 59.9236C120.464 43.9206 105.853 32.0752 88.4504 32.0752C69.786 32.0752 54.3306 45.7024 51.6564 63.4721C51.6381 63.5782 51.6228 63.6843 51.6075 63.7934C51.5983 63.863 51.5861 63.9358 51.58 64.0085C51.5739 64.0782 51.5678 64.1449 51.5647 64.2146C51.4578 66.2085 52.8025 67.9449 54.6882 68.4388L55.7915 68.5782L56.1888 68.6297L124.703 77.2994L132.439 78.2782L132.537 78.2903C136.614 78.8206 139.96 81.4691 141.476 85.0236C142.115 86.5206 142.433 88.1782 142.338 89.9085Z"
    fill="#26BEA5" />
  <path
    d="M91.8242 4.16337C91.809 4.46337 91.5492 4.69367 91.2436 4.67852C90.1892 4.63306 89.1286 4.61185 88.062 4.61185C46.9251 4.61185 13.5786 37.6755 13.5786 78.4634C13.5786 109.357 32.7075 135.821 59.8652 146.842C60.07 146.93 60.2075 147.136 60.1922 147.366C60.177 147.666 59.9172 147.897 59.6116 147.882C59.5932 147.882 59.5749 147.879 59.5596 147.879C59.5596 147.879 59.5596 147.879 59.5565 147.879C59.529 147.872 59.4985 147.866 59.471 147.857C59.4679 147.854 59.4587 147.854 59.4526 147.851C26.9068 139.942 2.76562 110.83 2.76562 76.124C2.76562 35.3361 36.1122 2.27246 77.2491 2.27246C82.0718 2.27246 86.7876 2.73004 91.3536 3.5967C91.6195 3.6361 91.8242 3.89367 91.8242 4.16337Z"
    fill="#26BEA5" />
  <path
    d="M76.445 167.508C74.217 167.508 72.1266 166.145 71.3197 163.951C70.2898 161.145 71.7476 158.042 74.5777 157.02L99.8649 147.896C102.695 146.875 105.825 148.32 106.855 151.127C107.884 153.933 106.427 157.036 103.597 158.057L78.3093 167.181C77.695 167.402 77.0654 167.508 76.445 167.508Z"
    fill="#26BEA5" />
  <path
    d="M89.5505 196.663C87.3225 196.663 85.232 195.3 84.4252 193.106C83.3952 190.3 84.8531 187.197 87.6831 186.176L112.97 177.051C115.8 176.03 118.93 177.476 119.96 180.282C120.99 183.088 119.532 186.191 116.702 187.212L91.4148 196.336C90.8005 196.557 90.1709 196.663 89.5505 196.663Z"
    fill="#26BEA5" />
  <path
    d="M79.2565 183.414C77.0285 183.414 74.9381 182.051 74.1312 179.857C73.1013 177.051 74.5591 173.947 77.3892 172.926L115.843 159.051C118.673 158.029 121.802 159.475 122.832 162.281C123.862 165.087 122.404 168.19 119.574 169.211L81.1208 183.087C80.5035 183.308 79.8739 183.414 79.2565 183.414Z"
    fill="#26BEA5" />
</svg>