<svg width="100" height="100" viewBox="0 0 100 100" fill="none" xmlns="http://www.w3.org/2000/svg">
<path d="M83.3333 61.4583C77 61.4583 71.875 56.3333 71.875 50C71.875 43.6666 77 38.5416 83.3333 38.5416C89.6667 38.5416 94.7917 43.6666 94.7917 50C94.7917 56.3333 89.6667 61.4583 83.3333 61.4583ZM83.3333 44.7916C80.4583 44.7916 78.125 47.125 78.125 50C78.125 52.875 80.4583 55.2083 83.3333 55.2083C86.2083 55.2083 88.5417 52.875 88.5417 50C88.5417 47.125 86.2083 44.7916 83.3333 44.7916Z" fill="#002E79"/>
<path d="M83.3333 28.125C77 28.125 71.875 23 71.875 16.6667C71.875 10.3334 77 5.20837 83.3333 5.20837C89.6667 5.20837 94.7917 10.3334 94.7917 16.6667C94.7917 23 89.6667 28.125 83.3333 28.125ZM83.3333 11.4584C80.4583 11.4584 78.125 13.7917 78.125 16.6667C78.125 19.5417 80.4583 21.875 83.3333 21.875C86.2083 21.875 88.5417 19.5417 88.5417 16.6667C88.5417 13.7917 86.2083 11.4584 83.3333 11.4584Z" fill="#002E79"/>
<path d="M83.3333 94.7917C77 94.7917 71.875 89.6667 71.875 83.3333C71.875 77 77 71.875 83.3333 71.875C89.6667 71.875 94.7917 77 94.7917 83.3333C94.7917 89.6667 89.6667 94.7917 83.3333 94.7917ZM83.3333 78.125C80.4583 78.125 78.125 80.4583 78.125 83.3333C78.125 86.2083 80.4583 88.5417 83.3333 88.5417C86.2083 88.5417 88.5417 86.2083 88.5417 83.3333C88.5417 80.4583 86.2083 78.125 83.3333 78.125Z" fill="#002E79"/>
<path d="M16.6663 61.4583C10.333 61.4583 5.20801 56.3333 5.20801 50C5.20801 43.6666 10.333 38.5416 16.6663 38.5416C22.9997 38.5416 28.1247 43.6666 28.1247 50C28.1247 56.3333 22.9997 61.4583 16.6663 61.4583ZM16.6663 44.7916C13.7913 44.7916 11.458 47.125 11.458 50C11.458 52.875 13.7913 55.2083 16.6663 55.2083C19.5413 55.2083 21.8747 52.875 21.8747 50C21.8747 47.125 19.5413 44.7916 16.6663 44.7916Z" fill="#002E79"/>
<path d="M75 53.125H25C23.2917 53.125 21.875 51.7083 21.875 50C21.875 48.2917 23.2917 46.875 25 46.875H75C76.7083 46.875 78.125 48.2917 78.125 50C78.125 51.7083 76.7083 53.125 75 53.125Z" fill="#002E79"/>
<path d="M74.9997 86.4583H58.333C48.2497 86.4583 42.708 80.9166 42.708 70.8333V29.1666C42.708 19.0833 48.2497 13.5416 58.333 13.5416H74.9997C76.708 13.5416 78.1247 14.9583 78.1247 16.6666C78.1247 18.375 76.708 19.7916 74.9997 19.7916H58.333C51.7497 19.7916 48.958 22.5833 48.958 29.1666V70.8333C48.958 77.4166 51.7497 80.2083 58.333 80.2083H74.9997C76.708 80.2083 78.1247 81.625 78.1247 83.3333C78.1247 85.0416 76.708 86.4583 74.9997 86.4583Z" fill="#002E79"/>
</svg>
