<svg width="100" height="100" viewBox="0 0 100 100" fill="none" xmlns="http://www.w3.org/2000/svg">
<path d="M75.4167 73.9584H24.5833C14.9166 73.9584 9.375 68.4167 9.375 58.7501V8.33337C9.375 6.62504 10.7917 5.20837 12.5 5.20837H87.5C89.2083 5.20837 90.625 6.62504 90.625 8.33337V58.7501C90.625 68.4167 85.0834 73.9584 75.4167 73.9584ZM15.625 11.4584V58.7501C15.625 64.9584 18.375 67.7084 24.5833 67.7084H75.375C81.5833 67.7084 84.3333 64.9584 84.3333 58.7501V11.4584H15.625Z" fill="#002E79"/>
<path d="M91.6663 11.4584H8.33301C6.62467 11.4584 5.20801 10.0417 5.20801 8.33337C5.20801 6.62504 6.62467 5.20837 8.33301 5.20837H91.6663C93.3747 5.20837 94.7913 6.62504 94.7913 8.33337C94.7913 10.0417 93.3747 11.4584 91.6663 11.4584Z" fill="#002E79"/>
<path d="M33.3344 94.7917C32.1678 94.7917 31.0844 94.1667 30.5427 93.0834C29.7511 91.5417 30.3762 89.6666 31.9595 88.875L46.8761 81.4167V70.8334C46.8761 69.125 48.2928 67.7084 50.0011 67.7084C51.7094 67.7084 53.1261 69.125 53.1261 70.8334V83.3334C53.1261 84.5 52.4594 85.5834 51.376 86.1251L34.7094 94.4584C34.2927 94.6668 33.7928 94.7917 33.3344 94.7917Z" fill="#002E79"/>
<path d="M66.6668 94.7916C66.2084 94.7916 65.7085 94.6666 65.2918 94.4583L48.6252 86.1249C47.0835 85.3333 46.4584 83.4582 47.2084 81.9166C48.0001 80.3749 49.8751 79.7499 51.4168 80.4999L68.0834 88.8333C69.6251 89.6249 70.2501 91.4998 69.5001 93.0415C68.9167 94.1665 67.7918 94.7916 66.6668 94.7916Z" fill="#002E79"/>
<path d="M31.2495 48.9583C30.3745 48.9583 29.4579 48.5834 28.8329 47.8334C27.7079 46.5 27.9162 44.5417 29.2495 43.4167L42.3746 32.4584C43.5829 31.4584 45.1245 31.0417 46.5828 31.2917C48.0828 31.5417 49.3746 32.4583 50.1662 33.7916L54.5412 41.0833L66.7495 30.9167C68.0828 29.8334 70.0411 29.9999 71.1661 31.3333C72.2911 32.6666 72.0829 34.6249 70.7496 35.7499L57.6245 46.7083C56.4161 47.7083 54.8746 48.1249 53.4162 47.8749C51.9162 47.6249 50.6245 46.7084 49.8328 45.375L45.4579 38.0834L33.2496 48.2499C32.6662 48.7083 31.9579 48.9583 31.2495 48.9583Z" fill="#002E79"/>
</svg>
