<svg className="" width="32" height="32" viewBox="0 0 32 32" fill="none" xmlns="http://www.w3.org/2000/svg">
  <path
    d="M29.3337 21.5868C29.3337 26.4401 26.4403 29.3334 21.587 29.3334H20.0003C19.267 29.3334 18.667 28.7334 18.667 28.0001V20.3068C18.667 19.9468 18.9603 19.6401 19.3203 19.6401L21.667 19.6001C21.8537 19.5868 22.0137 19.4534 22.0537 19.2668L22.5203 16.7201C22.5603 16.4801 22.3737 16.2534 22.1203 16.2534L19.2803 16.2934C18.907 16.2934 18.6137 16.0001 18.6003 15.6401L18.547 12.3734C18.547 12.1601 18.7203 11.9734 18.947 11.9734L22.147 11.9201C22.3736 11.9201 22.547 11.7468 22.547 11.5201L22.4937 8.32007C22.4937 8.0934 22.3203 7.92008 22.0937 7.92008L18.4937 7.97343C16.2803 8.01343 14.5203 9.82675 14.5603 12.0401L14.627 15.7067C14.6403 16.0801 14.347 16.3734 13.9737 16.3868L12.3737 16.4134C12.147 16.4134 11.9737 16.5867 11.9737 16.8134L12.0137 19.3468C12.0137 19.5734 12.187 19.7467 12.4137 19.7467L14.0137 19.7201C14.387 19.7201 14.6803 20.0134 14.6936 20.3734L14.8136 27.9734C14.827 28.7201 14.227 29.3334 13.4803 29.3334H10.4137C5.56032 29.3334 2.66699 26.4401 2.66699 21.5734V10.4134C2.66699 5.56008 5.56032 2.66675 10.4137 2.66675H21.587C26.4403 2.66675 29.3337 5.56008 29.3337 10.4134V21.5868Z"
    fill="#0040A7" />
</svg>