<svg className=" mt-1" width="25" height="24" viewBox="0 0 25 24" fill="none" xmlns="http://www.w3.org/2000/svg">
  <path
    d="M11.44 22.65C10.96 22.65 10.49 22.53 10.05 22.29C9.17002 21.8 8.64002 20.91 8.64002 19.91V14.61C8.64002 14.11 8.31002 13.36 8.00002 12.98L4.26002 9.02C3.63002 8.39 3.15002 7.31 3.15002 6.5V4.2C3.15002 2.6 4.36002 1.35 5.90002 1.35H19.1C20.62 1.35 21.85 2.58 21.85 4.1V6.3C21.85 7.35 21.22 8.54 20.63 9.13L16.3 12.96C15.88 13.31 15.55 14.08 15.55 14.7V19C15.55 19.89 14.99 20.92 14.29 21.34L12.91 22.23C12.46 22.51 11.95 22.65 11.44 22.65ZM5.90002 2.85C5.20002 2.85 4.65002 3.44 4.65002 4.2V6.5C4.65002 6.87 4.95002 7.59 5.33002 7.97L9.14002 11.98C9.65002 12.61 10.15 13.66 10.15 14.6V19.9C10.15 20.55 10.6 20.87 10.79 20.97C11.21 21.2 11.72 21.2 12.11 20.96L13.5 20.07C13.78 19.9 14.06 19.36 14.06 19V14.7C14.06 13.63 14.58 12.45 15.33 11.82L19.61 8.03C19.95 7.69 20.36 6.88 20.36 6.29V4.1C20.36 3.41 19.8 2.85 19.11 2.85H5.90002Z"
    fill="white" />
</svg>