<svg width="100" height="100" viewBox="0 0 100 100" fill="none" xmlns="http://www.w3.org/2000/svg">
<path d="M20.8333 91.125C17.75 91.125 14.7083 89.9583 12.375 87.625C10.125 85.375 8.875 82.375 8.875 79.1666C8.875 75.9583 10.125 72.9583 12.375 70.7083L66.5417 16.5416C71.2083 11.875 78.7917 11.875 83.4583 16.5416C85.7083 18.7916 86.9583 21.7916 86.9583 25C86.9583 28.2083 85.7083 31.2083 83.4583 33.4583L29.2917 87.625C26.9583 89.9583 23.9167 91.125 20.8333 91.125ZM75 19.2916C73.5417 19.2916 72.0833 19.8333 70.9583 20.9583L16.7917 75.125C15.7083 76.2083 15.125 77.625 15.125 79.1666C15.125 80.7083 15.7083 82.125 16.7917 83.2083C19 85.4166 22.6667 85.4166 24.875 83.2083L79.0417 29.0416C80.125 27.9583 80.7083 26.5416 80.7083 25C80.7083 23.4583 80.125 22.0416 79.0417 20.9583C77.9167 19.8333 76.4583 19.2916 75 19.2916Z" fill="#002E79"/>
<path d="M75.0413 40.5833C74.2497 40.5833 73.458 40.2917 72.833 39.6667L60.333 27.1667C59.1247 25.9583 59.1247 23.9583 60.333 22.75C61.5413 21.5417 63.5413 21.5417 64.7497 22.75L77.2497 35.25C78.458 36.4583 78.458 38.4583 77.2497 39.6667C76.6247 40.2917 75.833 40.5833 75.0413 40.5833Z" fill="#002E79"/>
<path d="M41.6664 22.9167C41.4581 22.9167 41.2914 22.8751 41.0831 22.8334L35.4164 21.1667L29.7497 22.8334C28.9997 23.0417 28.2081 22.8334 27.7081 22.2917C27.1664 21.7501 26.9581 21.0001 27.1664 20.2501L28.8331 14.5834L27.1664 8.91672C26.9581 8.16672 27.1664 7.37505 27.7081 6.87505C28.2497 6.33338 29.0414 6.12505 29.7497 6.33338L35.4164 8.00005L41.0831 6.33338C41.8331 6.12505 42.5831 6.33338 43.1247 6.87505C43.6664 7.41672 43.8747 8.20839 43.6664 8.91672L41.9997 14.5834L43.6664 20.2501C43.8747 21.0001 43.6664 21.7917 43.1247 22.2917C42.7497 22.7084 42.2081 22.9167 41.6664 22.9167ZM35.4164 16.9167C35.6247 16.9167 35.7914 16.9584 35.9997 17.0001L38.5831 17.7501L37.8331 15.1667C37.7081 14.7917 37.7081 14.3751 37.8331 14.0001L38.5831 11.4167L35.9997 12.1667C35.6247 12.2917 35.2081 12.2917 34.8331 12.1667L32.2497 11.4167L32.9997 14.0001C33.1247 14.3751 33.1247 14.7917 32.9997 15.1667L32.2497 17.7501L34.8331 17.0001C35.0414 16.9584 35.2081 16.9167 35.4164 16.9167Z" fill="#002E79"/>
<path d="M25.0004 47.9167C24.792 47.9167 24.6254 47.8751 24.417 47.8334L18.7504 46.1667L13.0837 47.8334C12.3337 48.0417 11.5837 47.8334 11.042 47.2917C10.5004 46.7501 10.292 45.9584 10.5004 45.2501L12.167 39.5834L10.5004 33.9167C10.292 33.1667 10.5004 32.3751 11.042 31.8751C11.5837 31.3751 12.3754 31.1251 13.0837 31.3334L18.7504 33.0001L24.417 31.3334C25.1254 31.1251 25.917 31.3334 26.4587 31.8751C27.0004 32.4167 27.2087 33.2084 27.0004 33.9167L25.3337 39.5834L27.0004 45.2501C27.2087 46.0001 27.0004 46.7917 26.4587 47.2917C26.0837 47.7084 25.542 47.9167 25.0004 47.9167ZM18.7504 41.9167C18.9587 41.9167 19.1254 41.9584 19.3337 42.0001L21.917 42.7501L21.167 40.1667C21.042 39.7917 21.042 39.3751 21.167 39.0001L21.917 36.4167L19.3337 37.1667C18.9587 37.2917 18.542 37.2917 18.167 37.1667L15.5837 36.4167L16.3337 39.0001C16.4587 39.3751 16.4587 39.7917 16.3337 40.1667L15.5837 42.7501L18.167 42.0001C18.3754 41.9584 18.542 41.9167 18.7504 41.9167Z" fill="#002E79"/>
<path d="M87.5004 68.75C87.292 68.75 87.1254 68.7083 86.917 68.6666L81.2504 67L75.5837 68.6666C74.8337 68.875 74.0837 68.6666 73.542 68.125C73.0004 67.5833 72.792 66.7916 73.0004 66.0833L74.667 60.4166L73.0004 54.75C72.792 54 73.0004 53.2083 73.542 52.7083C74.0837 52.2083 74.8754 51.9583 75.5837 52.1666L81.2504 53.8333L86.917 52.1666C87.6254 51.9583 88.417 52.1666 88.9587 52.7083C89.5004 53.25 89.7087 54.0416 89.5004 54.75L87.8337 60.4166L89.5004 66.0833C89.7087 66.8333 89.5004 67.625 88.9587 68.125C88.5837 68.5416 88.042 68.75 87.5004 68.75ZM81.2504 62.75C81.4587 62.75 81.6254 62.7916 81.8337 62.8333L84.417 63.5833L83.667 61C83.542 60.625 83.542 60.2083 83.667 59.8333L84.417 57.25L81.8337 58C81.4587 58.125 81.042 58.125 80.667 58L78.0837 57.25L78.8337 59.8333C78.9587 60.2083 78.9587 60.625 78.8337 61L78.0837 63.5833L80.667 62.8333C80.8754 62.7916 81.042 62.75 81.2504 62.75Z" fill="#002E79"/>
</svg>
