<svg width="32" height="32" viewBox="0 0 32 32" fill="none" xmlns="http://www.w3.org/2000/svg">
  <path
    d="M21.587 2.66675H10.4137C5.56033 2.66675 2.66699 5.56008 2.66699 10.4134V21.5734C2.66699 26.4401 5.56033 29.3334 10.4137 29.3334H21.5737C26.427 29.3334 29.3203 26.4401 29.3203 21.5868V10.4134C29.3337 5.56008 26.4403 2.66675 21.587 2.66675ZM16.0003 21.1734C13.147 21.1734 10.827 18.8534 10.827 16.0001C10.827 13.1467 13.147 10.8267 16.0003 10.8267C18.8537 10.8267 21.1737 13.1467 21.1737 16.0001C21.1737 18.8534 18.8537 21.1734 16.0003 21.1734ZM23.8937 9.17342C23.827 9.33342 23.7337 9.48008 23.6137 9.61341C23.4803 9.73342 23.3337 9.82675 23.1737 9.89341C23.0137 9.96008 22.8403 10.0001 22.667 10.0001C22.307 10.0001 21.9737 9.86675 21.7203 9.61341C21.6003 9.48008 21.507 9.33342 21.4403 9.17342C21.3737 9.01341 21.3337 8.84008 21.3337 8.66675C21.3337 8.49341 21.3737 8.32008 21.4403 8.16008C21.507 7.98675 21.6003 7.85342 21.7203 7.72008C22.027 7.41341 22.4937 7.26675 22.9203 7.36008C23.0137 7.37341 23.0937 7.40008 23.1737 7.44008C23.2537 7.46675 23.3337 7.50675 23.4137 7.56008C23.4803 7.60008 23.547 7.66675 23.6137 7.72008C23.7337 7.85342 23.827 7.98675 23.8937 8.16008C23.9603 8.32008 24.0003 8.49341 24.0003 8.66675C24.0003 8.84008 23.9603 9.01341 23.8937 9.17342Z"
    fill="#0040A7" />
</svg>