<svg width="32" height="32" viewBox="0 0 32 32" fill="none" xmlns="http://www.w3.org/2000/svg">
  <g clip-path="url(#clip0_1987_515)">
    <path fill-rule="evenodd" clip-rule="evenodd"
      d="M2.66699 4.89463C2.66699 4.30376 2.90171 3.73709 3.31952 3.31928C3.73733 2.90147 4.304 2.66675 4.89487 2.66675H27.1034C27.3962 2.66627 27.6862 2.72355 27.9569 2.83532C28.2275 2.94708 28.4735 3.11113 28.6806 3.31807C28.8878 3.52501 29.0521 3.77078 29.1642 4.04131C29.2762 4.31184 29.3338 4.60181 29.3337 4.89463V27.1031C29.334 27.396 29.2765 27.6861 29.1646 27.9567C29.0528 28.2274 28.8886 28.4733 28.6816 28.6805C28.4745 28.8876 28.2287 29.0519 27.9581 29.1639C27.6875 29.276 27.3974 29.3336 27.1046 29.3334H4.89487C4.6022 29.3334 4.3124 29.2757 4.04202 29.1637C3.77164 29.0517 3.52599 28.8875 3.31909 28.6805C3.1122 28.4735 2.94812 28.2277 2.83623 27.9573C2.72434 27.6868 2.66683 27.397 2.66699 27.1043V4.89463ZM13.2221 12.834H16.8331V14.6474C17.3543 13.6049 18.6876 12.6668 20.6912 12.6668C24.5324 12.6668 25.4427 14.7431 25.4427 18.5528V25.6098H21.5555V19.4207C21.5555 17.251 21.0343 16.0268 19.7106 16.0268C17.8743 16.0268 17.1106 17.3468 17.1106 19.4207V25.6098H13.2221V12.834ZM6.55548 25.4437H10.444V12.6668H6.55548V25.4425V25.4437ZM11.0003 8.49948C11.0077 8.83241 10.9484 9.16346 10.8261 9.47319C10.7037 9.78292 10.5208 10.0651 10.2879 10.3032C10.055 10.5412 9.77693 10.7304 9.46997 10.8595C9.16301 10.9886 8.83334 11.0551 8.50033 11.0551C8.16731 11.0551 7.83765 10.9886 7.53068 10.8595C7.22372 10.7304 6.94564 10.5412 6.71277 10.3032C6.4799 10.0651 6.29692 9.78292 6.17458 9.47319C6.05224 9.16346 5.99299 8.83241 6.00033 8.49948C6.01472 7.84597 6.28443 7.22407 6.7517 6.76698C7.21898 6.30988 7.84666 6.05392 8.50033 6.05392C9.15399 6.05392 9.78168 6.30988 10.2489 6.76698C10.7162 7.22407 10.9859 7.84597 11.0003 8.49948Z"
      fill="#0040A7" />
  </g>
  <defs>
    <clipPath id="clip0_1987_515">
      <rect width="32" height="32" fill="white" />
    </clipPath>
  </defs>
</svg>