<svg width="16" height="16" viewBox="0 0 16 16" fill="none" xmlns="http://www.w3.org/2000/svg">
<g id="icon location">
<g id="Group">
<path id="Vector" d="M7.99901 9.38608C6.63648 9.38608 5.52344 8.27944 5.52344 6.91053C5.52344 5.54165 6.63648 4.44141 7.99901 4.44141C9.36152 4.44141 10.4746 5.54805 10.4746 6.91693C10.4746 8.28584 9.36152 9.38608 7.99901 9.38608ZM7.99901 5.40092C7.16743 5.40092 6.48295 6.07898 6.48295 6.91693C6.48295 7.75491 7.16104 8.43296 7.99901 8.43296C8.83699 8.43296 9.51505 7.75491 9.51505 6.91693C9.51505 6.07898 8.83059 5.40092 7.99901 5.40092Z" fill="#4D535C"/>
<path id="Vector_2" d="M7.99803 14.8805C7.05131 14.8805 6.09818 14.5223 5.35616 13.8123C3.46911 11.9956 1.38376 9.09786 2.17056 5.65001C2.88061 2.52199 5.61203 1.12109 7.99803 1.12109H8.00442C10.3904 1.12109 13.1218 2.52199 13.8319 5.6564C14.6123 9.10426 12.5269 11.9956 10.6399 13.8123C9.89787 14.5223 8.94475 14.8805 7.99803 14.8805ZM7.99803 2.08061C6.13656 2.08061 3.74417 3.07211 3.11089 5.8611C2.42004 8.87398 4.31348 11.4711 6.02782 13.115C7.13446 14.1833 8.86799 14.1833 9.97463 13.115C11.6826 11.4711 13.576 8.87398 12.898 5.8611C12.2583 3.07211 9.85949 2.08061 7.99803 2.08061Z" fill="#4D535C"/>
</g>
</g>
</svg>
