<svg width="100" height="100" viewBox="0 0 100 100" fill="none" xmlns="http://www.w3.org/2000/svg">
<g clip-path="url(#clip0_1149_23185)">
<path fill-rule="evenodd" clip-rule="evenodd" d="M81.2447 11.4258C80.6514 9.80508 78.8566 8.97216 77.2359 9.56542C75.6152 10.1587 74.7822 11.9535 75.3755 13.5742C75.6197 14.2414 75.8568 14.9119 76.0867 15.5859C65.8607 20.4719 54.6437 23.617 42.8165 24.6375C40.0353 24.8774 37.2198 25 34.375 25H31.25C19.1688 25 9.375 34.7938 9.375 46.875C9.375 57.7067 17.2477 66.6997 27.5832 68.444C28.976 74.1481 30.9086 79.6407 33.3235 84.8642C35.2571 89.0465 40.2992 90.3643 44.0845 88.1789L46.8192 86.6C50.4862 84.4829 51.6761 79.9638 50.0362 76.3162C49.0576 74.1396 48.1843 71.9057 47.4226 69.6208C57.5594 70.985 67.1974 73.9168 76.0867 78.1641C75.8568 78.838 75.6197 79.5086 75.3755 80.1758C74.7822 81.7965 75.6152 83.5913 77.2359 84.1846C78.8566 84.7778 80.6514 83.9449 81.2447 82.3242C81.828 80.7304 82.3733 79.1182 82.8792 77.4887C85.0611 70.4606 86.5113 63.1118 87.1416 55.5323C89.2956 53.2887 90.625 50.236 90.625 46.875C90.625 43.5139 89.2956 40.4613 87.1416 38.2177C86.5113 30.6382 85.0611 23.2894 82.8792 16.2613C82.3733 14.6318 81.8281 13.0196 81.2447 11.4258ZM45.5888 30.6471C57.0329 29.4091 67.9176 26.2985 77.9281 21.628C79.5117 27.5109 80.5553 33.6163 81.0021 39.8883C81.1664 42.1953 81.25 44.5251 81.25 46.875C81.25 49.2248 81.1664 51.5546 81.0021 53.8616C80.5553 60.1337 79.5117 66.2391 77.9281 72.122C67.9176 67.4514 57.0329 64.3409 45.5888 63.1029C44.3862 57.8906 43.75 52.4589 43.75 46.875C43.75 41.2911 44.3862 35.8594 45.5888 30.6471ZM37.5 46.875C37.5 52.2608 38.0455 57.5221 39.0849 62.6057C37.5236 62.5355 35.9533 62.5 34.375 62.5H31.25C22.6206 62.5 15.625 55.5044 15.625 46.875C15.625 38.2455 22.6206 31.25 31.25 31.25H34.375C35.9533 31.25 37.5236 31.2145 39.085 31.1443C38.0455 36.2279 37.5 41.4892 37.5 46.875ZM38.9966 82.2413C37.0026 77.9285 35.3622 73.4191 34.1125 68.75H34.375C36.488 68.75 38.5848 68.8176 40.6634 68.9507C41.6668 72.3631 42.8968 75.6784 44.3358 78.8791C44.7579 79.818 44.3822 80.7901 43.6942 81.1874L40.9595 82.7662C40.15 83.2336 39.2895 82.875 38.9966 82.2413Z" fill="#002E79"/>
</g>
<defs>
<clipPath id="clip0_1149_23185">
<rect width="100" height="100" fill="white"/>
</clipPath>
</defs>
</svg>
