<svg width="26" height="26" viewBox="0 0 26 26" fill="none" xmlns="http://www.w3.org/2000/svg">
  <path
    d="M22.75 7.29083C22.7283 7.29083 22.6958 7.29083 22.6633 7.29083C16.9325 6.71666 11.2125 6.49999 5.54664 7.07416L3.33664 7.29083C2.88164 7.33416 2.4808 7.00916 2.43747 6.55416C2.39414 6.09916 2.71914 5.70916 3.1633 5.66583L5.3733 5.44916C11.1366 4.86416 16.9758 5.09166 22.8258 5.66583C23.27 5.70916 23.595 6.10999 23.5516 6.55416C23.5191 6.97666 23.1616 7.29083 22.75 7.29083Z"
    fill="#BB1E1E" />
  <path
    d="M9.20832 6.19669C9.16499 6.19669 9.12166 6.19669 9.06749 6.18585C8.63416 6.11002 8.33082 5.68752 8.40666 5.25419L8.64499 3.83502C8.81832 2.79502 9.05666 1.35419 11.5808 1.35419H14.4192C16.9542 1.35419 17.1925 2.84919 17.355 3.84585L17.5933 5.25419C17.6692 5.69835 17.3658 6.12085 16.9325 6.18585C16.4883 6.26169 16.0658 5.95835 16.0008 5.52502L15.7625 4.11669C15.6108 3.17419 15.5783 2.99002 14.43 2.99002H11.5917C10.4433 2.99002 10.4217 3.14169 10.2592 4.10585L10.01 5.51419C9.94499 5.91502 9.59832 6.19669 9.20832 6.19669Z"
    fill="#BB1E1E" />
  <path
    d="M16.4775 24.6459H9.52247C5.74164 24.6459 5.58997 22.555 5.47081 20.865L4.76664 9.95585C4.73414 9.51169 5.0808 9.12169 5.52497 9.08919C5.97997 9.06752 6.35914 9.40335 6.39164 9.84752L7.09581 20.7567C7.21497 22.4034 7.2583 23.0209 9.52247 23.0209H16.4775C18.7525 23.0209 18.7958 22.4034 18.9041 20.7567L19.6083 9.84752C19.6408 9.40335 20.0308 9.06752 20.475 9.08919C20.9191 9.12169 21.2658 9.50085 21.2333 9.95585L20.5291 20.865C20.41 22.555 20.2583 24.6459 16.4775 24.6459Z"
    fill="#BB1E1E" />
  <path
    d="M14.7983 18.6875H11.1908C10.7466 18.6875 10.3783 18.3192 10.3783 17.875C10.3783 17.4308 10.7466 17.0625 11.1908 17.0625H14.7983C15.2425 17.0625 15.6108 17.4308 15.6108 17.875C15.6108 18.3192 15.2425 18.6875 14.7983 18.6875Z"
    fill="#BB1E1E" />
  <path
    d="M15.7083 14.3542H10.2916C9.84746 14.3542 9.47913 13.9859 9.47913 13.5417C9.47913 13.0975 9.84746 12.7292 10.2916 12.7292H15.7083C16.1525 12.7292 16.5208 13.0975 16.5208 13.5417C16.5208 13.9859 16.1525 14.3542 15.7083 14.3542Z"
    fill="#BB1E1E" />
</svg>