<svg width="27" height="26" viewBox="0 0 27 26" fill="none" xmlns="http://www.w3.org/2000/svg">
  <path
    d="M16.8908 20.6483H8.22418C7.78002 20.6483 7.41168 20.28 7.41168 19.8358C7.41168 19.3917 7.78002 19.0233 8.22418 19.0233H16.8908C19.4258 19.0233 21.495 16.9542 21.495 14.4192C21.495 11.8842 19.4258 9.815 16.8908 9.815H4.97418C4.53002 9.815 4.16168 9.44667 4.16168 9.0025C4.16168 8.55834 4.53002 8.19 4.97418 8.19H16.8908C20.325 8.19 23.12 10.985 23.12 14.4192C23.12 17.8533 20.325 20.6483 16.8908 20.6483Z"
    fill="#1E9884" />
  <path
    d="M7.46585 12.5233C7.26001 12.5233 7.05418 12.4475 6.89168 12.285L4.11835 9.51167C3.80418 9.1975 3.80418 8.6775 4.11835 8.36334L6.89168 5.59C7.20585 5.27584 7.72585 5.27584 8.04001 5.59C8.35418 5.90417 8.35418 6.42417 8.04001 6.73834L5.84085 8.9375L8.04001 11.1367C8.35418 11.4508 8.35418 11.9708 8.04001 12.285C7.88835 12.4475 7.67168 12.5233 7.46585 12.5233Z"
    fill="#1E9884" />
</svg>