<svg width="26" height="26" viewBox="0 0 26 26" fill="none" xmlns="http://www.w3.org/2000/svg">
<g id="search-normal">
<path id="Vector" d="M12.4582 23.5625C6.33734 23.5625 1.354 18.5791 1.354 12.4583C1.354 6.33746 6.33734 1.35413 12.4582 1.35413C18.579 1.35413 23.5623 6.33746 23.5623 12.4583C23.5623 18.5791 18.579 23.5625 12.4582 23.5625ZM12.4582 2.97913C7.22567 2.97913 2.979 7.23663 2.979 12.4583C2.979 17.68 7.22567 21.9375 12.4582 21.9375C17.6907 21.9375 21.9373 17.68 21.9373 12.4583C21.9373 7.23663 17.6907 2.97913 12.4582 2.97913Z" fill="white"/>
<path id="Vector_2" d="M23.8334 24.6459C23.6276 24.6459 23.4217 24.5701 23.2592 24.4076L21.0926 22.2409C20.7784 21.9267 20.7784 21.4067 21.0926 21.0926C21.4067 20.7784 21.9267 20.7784 22.2409 21.0926L24.4076 23.2592C24.7217 23.5734 24.7217 24.0934 24.4076 24.4076C24.2451 24.5701 24.0392 24.6459 23.8334 24.6459Z" fill="white"/>
</g>
</svg>
