<svg width="17" height="16" viewBox="0 0 17 16" fill="none" xmlns="http://www.w3.org/2000/svg">
<g id="send">
<path id="Vector" d="M4.1068 14.5C3.36013 14.5 2.8868 14.2467 2.5868 13.9467C2.00013 13.36 1.5868 12.1133 2.9068 9.46668L3.4868 8.31335C3.56013 8.16001 3.56013 7.84001 3.4868 7.68668L2.9068 6.53335C1.58013 3.88668 2.00013 2.63335 2.5868 2.05335C3.1668 1.46668 4.42013 1.04668 7.06013 2.37335L12.7668 5.22668C14.1868 5.93335 14.9668 6.92001 14.9668 8.00001C14.9668 9.08001 14.1868 10.0667 12.7735 10.7733L7.0668 13.6267C5.77346 14.2733 4.81346 14.5 4.1068 14.5ZM4.1068 2.50001C3.7468 2.50001 3.4668 2.58668 3.29346 2.76001C2.8068 3.24001 3.00013 4.48668 3.80013 6.08001L4.38013 7.24001C4.59346 7.67335 4.59346 8.32668 4.38013 8.76001L3.80013 9.91335C3.00013 11.5133 2.8068 12.7533 3.29346 13.2333C3.77346 13.72 5.02013 13.5267 6.62013 12.7267L12.3268 9.87335C13.3735 9.35335 13.9668 8.66668 13.9668 7.99335C13.9668 7.32001 13.3668 6.63335 12.3201 6.11335L6.61346 3.26668C5.60013 2.76001 4.7268 2.50001 4.1068 2.50001Z" fill="white"/>
<path id="Vector_2" d="M7.72647 8.5H4.12646C3.85313 8.5 3.62646 8.27333 3.62646 8C3.62646 7.72667 3.85313 7.5 4.12646 7.5H7.72647C7.9998 7.5 8.22647 7.72667 8.22647 8C8.22647 8.27333 7.9998 8.5 7.72647 8.5Z" fill="white"/>
</g>
</svg>
