<svg width="32" height="32" viewBox="0 0 32 32" fill="none" xmlns="http://www.w3.org/2000/svg">
  <g clip-path="url(#clip0_1987_504)">
    <path
      d="M30.5493 8.10207C30.6705 7.94263 30.4989 7.7308 30.3111 7.80038C29.7772 7.99823 29.229 8.15495 28.6715 8.26924C28.4602 8.31255 28.343 8.01312 28.507 7.87303C29.1577 7.31724 29.6737 6.61808 30.013 5.82862C30.0858 5.6593 29.9003 5.50631 29.7376 5.59283C28.8044 6.08906 27.8036 6.4491 26.7676 6.66448C26.6999 6.67855 26.6302 6.65568 26.582 6.60614C25.7523 5.75311 24.6706 5.18714 23.4946 4.99268C22.2821 4.79218 21.0373 4.99789 19.9537 5.57784C18.8701 6.15779 18.0085 7.07948 17.5028 8.19963C17.0337 9.23881 16.8952 10.3948 17.1026 11.5116C17.1269 11.6425 17.0246 11.7653 16.8918 11.7564C14.7669 11.6142 12.6915 11.0448 10.7903 10.0811C8.89609 9.12086 7.21528 7.78984 5.8472 6.16808C5.75703 6.0612 5.58765 6.0746 5.52367 6.19894C5.1185 6.98647 4.90675 7.8608 4.90801 8.74924C4.90801 10.432 5.65451 11.9441 6.83362 12.9672C6.98543 13.0989 6.89207 13.3563 6.69356 13.3249C6.07505 13.2269 5.47599 13.0249 4.92231 12.7259C4.89547 12.7114 4.86267 12.7307 4.86267 12.7612C4.86263 14.0491 5.30805 15.2973 6.12338 16.2941C6.75927 17.0716 7.58964 17.6589 8.52315 18.0009C8.72122 18.0734 8.71601 18.3657 8.50644 18.3897C8.05574 18.4413 7.59979 18.4382 7.14866 18.3798C6.9981 18.3603 6.87358 18.5026 6.92862 18.6441C7.3083 19.62 7.95597 20.4717 8.8 21.0991C9.58357 21.6816 10.5035 22.0463 11.4665 22.1614C11.6533 22.1837 11.73 22.427 11.5764 22.5356C10.5307 23.2752 9.36466 23.8306 8.12855 24.1764C6.99212 24.4943 5.81437 24.6299 4.63901 24.58C4.4268 24.571 4.33157 24.8553 4.51628 24.9601C6.89011 26.3075 9.57784 27.0184 12.3173 27.0159C22.576 27.0159 28.184 18.5186 28.184 11.1492C28.184 10.9453 28.1802 10.7394 28.1725 10.5357C28.1699 10.4684 28.201 10.4042 28.2552 10.3643C29.1245 9.72308 29.8968 8.96066 30.5493 8.10207Z"
      fill="#0040A7" />
  </g>
  <defs>
    <clipPath id="clip0_1987_504">
      <rect width="32" height="32" fill="white" />
    </clipPath>
  </defs>
</svg>