<svg width="100" height="100" viewBox="0 0 100 100" fill="none" xmlns="http://www.w3.org/2000/svg">
<path d="M53.1249 39.25H36.1248C26.7498 39.25 19.125 31.6249 19.125 22.2499C19.125 12.8749 26.7498 5.25 36.1248 5.25H53.1249V39.25ZM36.1248 11.4583C30.2081 11.4583 25.375 16.2916 25.375 22.2082C25.375 28.1249 30.2081 32.9583 36.1248 32.9583H46.8749V11.4166H36.1248V11.4583Z" fill="#002E79"/>
<path d="M53.1249 66.9999H36.1248C26.7498 66.9999 19.125 59.3749 19.125 49.9999C19.125 40.6249 26.7498 33 36.1248 33H53.1249V66.9999ZM36.1248 39.25C30.2081 39.25 25.375 44.0833 25.375 49.9999C25.375 55.9166 30.2081 60.7499 36.1248 60.7499H46.8749V39.2083H36.1248V39.25Z" fill="#002E79"/>
<path d="M36.1248 94.7916C26.7498 94.7916 19.125 87.1667 19.125 77.7917C19.125 68.4167 26.7498 60.7916 36.1248 60.7916H53.1249V77.7917C53.1249 87.1667 45.4998 94.7916 36.1248 94.7916ZM36.1248 66.9999C30.2081 66.9999 25.375 71.8333 25.375 77.75C25.375 83.6667 30.2081 88.4999 36.1248 88.4999C42.0415 88.4999 46.8749 83.6667 46.8749 77.75V66.9999H36.1248Z" fill="#002E79"/>
<path d="M63.8751 39.2501H46.875V5.20837H63.8751C73.2501 5.20837 80.8749 12.8333 80.8749 22.2083C80.9166 31.5833 73.2501 39.2501 63.8751 39.2501ZM53.125 33.0001H63.8751C69.7917 33.0001 74.6249 28.1667 74.6249 22.25C74.6249 16.3334 69.7917 11.5001 63.8751 11.5001H53.125V33.0001Z" fill="#002E79"/>
<path d="M63.8751 66.9999C54.5001 66.9999 46.875 59.3749 46.875 49.9999C46.875 40.6249 54.5001 33 63.8751 33C73.2501 33 80.8749 40.6249 80.8749 49.9999C80.8749 59.3749 73.2501 66.9999 63.8751 66.9999ZM63.8751 39.25C57.9584 39.25 53.125 44.0833 53.125 49.9999C53.125 55.9166 57.9584 60.7499 63.8751 60.7499C69.7917 60.7499 74.6249 55.9166 74.6249 49.9999C74.6249 44.0833 69.8334 39.25 63.8751 39.25Z" fill="#002E79"/>
</svg>
