<svg width="100" height="100" viewBox="0 0 100 100" fill="none" xmlns="http://www.w3.org/2000/svg">
<path d="M66.6667 94.7917H33.3333C18.125 94.7917 9.375 86.0417 9.375 70.8334V29.1667C9.375 13.9584 18.125 5.20837 33.3333 5.20837H66.6667C81.875 5.20837 90.625 13.9584 90.625 29.1667V70.8334C90.625 86.0417 81.875 94.7917 66.6667 94.7917ZM33.3333 11.4584C21.4167 11.4584 15.625 17.25 15.625 29.1667V70.8334C15.625 82.75 21.4167 88.5417 33.3333 88.5417H66.6667C78.5833 88.5417 84.375 82.75 84.375 70.8334V29.1667C84.375 17.25 78.5833 11.4584 66.6667 11.4584H33.3333Z" fill="#002E79"/>
<path d="M77.0837 38.5417H68.7503C62.417 38.5417 57.292 33.4167 57.292 27.0833V18.75C57.292 17.0417 58.7087 15.625 60.417 15.625C62.1253 15.625 63.542 17.0417 63.542 18.75V27.0833C63.542 29.9583 65.8753 32.2917 68.7503 32.2917H77.0837C78.792 32.2917 80.2087 33.7083 80.2087 35.4167C80.2087 37.125 78.792 38.5417 77.0837 38.5417Z" fill="#002E79"/>
<path d="M41.6667 73.9583C40.875 73.9583 40.0833 73.6667 39.4583 73.0417L31.125 64.7084C29.9167 63.5 29.9167 61.4998 31.125 60.2915L39.4583 51.9581C40.6667 50.7498 42.6667 50.7498 43.875 51.9581C45.0833 53.1665 45.0833 55.1667 43.875 56.375L37.75 62.4999L43.875 68.6248C45.0833 69.8331 45.0833 71.8334 43.875 73.0417C43.25 73.6667 42.4583 73.9583 41.6667 73.9583Z" fill="#002E79"/>
<path d="M58.3333 73.9583C57.5417 73.9583 56.75 73.6667 56.125 73.0417C54.9167 71.8334 54.9167 69.8331 56.125 68.6248L62.25 62.4999L56.125 56.375C54.9167 55.1667 54.9167 53.1665 56.125 51.9581C57.3333 50.7498 59.3333 50.7498 60.5417 51.9581L68.875 60.2915C70.0833 61.4998 70.0833 63.5 68.875 64.7084L60.5417 73.0417C59.9167 73.6667 59.125 73.9583 58.3333 73.9583Z" fill="#002E79"/>
</svg>
